Coordinates
version=1
nRows=54
nColumns=12
inDegrees=yes

Units are S.I. units (second, meters, Newtons, ...)
Angles are in degrees

endheader
time	SC_y	SC_z	SC_x	AC_y	AC_z	AC_x	GH_y	GH_z	GH_yy	EL_x	PS_y
       0.0              -22.34          25.54           30.0          55.19          1.884         -10.62          133.1          51.39         -122.2          60.08          148.5
   0.03059              -22.34          25.54           30.0          55.19          1.882         -10.62          133.0          51.39         -122.2          60.08          148.5
   0.06118              -22.34          25.54           30.0          55.19          1.879         -10.62          133.0          51.39         -122.2          60.07          148.5
   0.09177              -22.34          25.53           30.0          55.19          1.877         -10.62          132.9          51.39         -122.2          60.07          148.5
    0.1224              -22.34          25.53           30.0          55.19          1.875         -10.62          132.9          51.39         -122.1          60.07          148.5
     0.153              -22.34          25.53          29.99          55.19          1.872         -10.62          132.8          51.39         -122.1          60.06          148.5
    0.1835              -22.34          25.53          29.99          55.18          1.869         -10.62          132.8          51.38         -122.1          60.06          148.4
    0.2141              -22.34          25.53          29.99          55.18          1.866         -10.62          132.7          51.38         -122.1          60.05          148.4
    0.2447              -22.33          25.53          29.99          55.18          1.863         -10.62          132.6          51.38         -122.1          60.05          148.4
    0.2753              -22.33          25.53          29.98          55.18           1.86         -10.62          132.6          51.38         -122.0          60.05          148.4
    0.3059              -22.33          25.53          29.98          55.18          1.856         -10.62          132.5          51.38         -122.0          60.04          148.4
    0.3365              -22.33          25.53          29.98          55.18          1.852         -10.62          132.4          51.37         -122.0          60.03          148.3
    0.3671              -22.33          25.52          29.97          55.18          1.848         -10.62          132.3          51.37         -122.0          60.03          148.3
    0.3977              -22.33          25.52          29.97          55.18          1.843         -10.62          132.2          51.37         -121.9          60.02          148.3
    0.4283              -22.33          25.52          29.97          55.18          1.839         -10.62          132.1          51.37         -121.9          60.01          148.3
    0.4589              -22.32          25.52          29.96          55.18          1.833         -10.62          132.0          51.36         -121.9          60.01          148.2
    0.4895              -22.32          25.52          29.96          55.18          1.827         -10.62          131.9          51.36         -121.8           60.0          148.2
      0.52              -22.32          25.51          29.95          55.18          1.821         -10.62          131.8          51.36         -121.8          59.99          148.2
    0.5506              -22.32          25.51          29.94          55.18          1.814         -10.62          131.6          51.35         -121.8          59.98          148.1
    0.5812              -22.32          25.51          29.94          55.17          1.807         -10.62          131.5          51.35         -121.7          59.97          148.1
    0.6118              -22.31          25.51          29.93          55.17          1.798         -10.62          131.3          51.35         -121.7          59.96          148.0
    0.6424              -22.31           25.5          29.92          55.17          1.789         -10.62          131.1          51.34         -121.6          59.94          148.0
     0.673              -22.31           25.5          29.91          55.17          1.779         -10.62          130.9          51.34         -121.5          59.93          147.9
    0.7036               -22.3           25.5           29.9          55.17          1.768         -10.62          130.6          51.33         -121.5          59.91          147.9
    0.7342               -22.3          25.49          29.89          55.17          1.755         -10.62          130.4          51.32         -121.4           59.9          147.8
    0.7648              -22.29          25.49          29.88          55.16          1.741         -10.62          130.1          51.32         -121.3          59.88          147.7
    0.7954              -22.29          25.48          29.87          55.16          1.726         -10.62          129.8          51.31         -121.2          59.85          147.6
     0.826              -22.28          25.47          29.85          55.16          1.708         -10.62          129.4           51.3         -121.1          59.83          147.5
    0.8565              -22.28          25.47          29.83          55.15          1.688         -10.62          129.0          51.29         -121.0           59.8          147.4
    0.8871              -22.27          25.46          29.81          55.15          1.666         -10.62          128.5          51.28         -120.8          59.77          147.3
    0.9177              -22.26          25.45          29.79          55.15           1.64         -10.62          128.0          51.26         -120.7          59.73          147.1
    0.9483              -22.25          25.44          29.77          55.14          1.611         -10.62          127.4          51.25         -120.5          59.69          146.9
    0.9789              -22.24          25.43          29.74          55.14          1.577         -10.62          126.7          51.23         -120.3          59.64          146.7
      1.01              -22.23          25.41           29.7          55.13          1.537         -10.62          125.8          51.21         -120.0          59.58          146.5
      1.04              -22.21           25.4          29.66          55.12          1.491         -10.62          124.9          51.18         -119.8          59.52          146.2
     1.071              -22.19          25.38          29.61          55.11          1.436         -10.62          123.7          51.16         -119.4          59.44          145.9
     1.101              -22.17          25.35          29.56           55.1          1.372         -10.62          122.4          51.12         -119.0          59.35          145.5
     1.132              -22.15          25.32          29.49          55.09          1.294         -10.62          120.8          51.08         -118.5          59.23          145.1
     1.162              -22.12          25.29          29.41          55.07            1.2         -10.62          118.8          51.03         -117.9           59.1          144.5
     1.193              -22.08          25.25          29.31          55.05          1.085         -10.62          116.4          50.97         -117.2          58.93          143.9
     1.224              -22.03           25.2          29.18          55.03         0.9436         -10.62          113.5           50.9         -116.4          58.73          143.0
     1.254              -21.97          25.13          29.03           55.0         0.7669         -10.62          109.8           50.8         -115.3          58.48          142.0
     1.285               -21.9          25.05          28.84          54.96         0.5444         -10.63          105.2          50.68         -113.9          58.16          140.7
     1.315              -21.81          24.95          28.59          54.91         0.2615         -10.63          99.28          50.54         -112.1          57.75          139.0
     1.346              -21.69          24.82          28.27          54.85        -0.1006         -10.63          91.74          50.34         -109.9          57.23          136.9
     1.377              -21.54          24.65          27.87          54.77        -0.5653         -10.63          82.07           50.1         -107.0          56.57          134.2
     1.407              -21.34          24.44          27.35          54.67         -1.159         -10.63          69.71          49.79         -103.3          55.72          130.7
     1.438               -21.1          24.17           26.7          54.55         -1.905         -10.63          54.17          49.39         -98.65          54.65          126.4
     1.468               -20.8          23.84           25.9           54.4         -2.815         -10.63          35.23          48.91          -93.0          53.34          121.0
     1.499              -20.45          23.46          24.98          54.22         -3.869         -10.63          13.28          48.36         -86.44          51.83          114.9
      1.53              -20.08          23.05          23.98          54.02          -5.01         -10.64         -10.49          47.75         -79.35          50.19          108.2
      1.56               -19.7          22.64          22.99          53.83         -6.152         -10.64         -34.25          47.15         -72.26          48.56          101.5
     1.591              -19.36          22.25          22.07          53.65         -7.206         -10.64          -56.2           46.6         -65.71          47.05          95.32
     1.621              -19.06          21.93          21.27           53.5         -8.115         -10.64         -75.14          46.12         -60.05          45.74           90.0
